<?xml version="1.0" encoding="utf-8"?>
<!-- Generator: Adobe Adobe Illustrator 24.2.0, SVG Export Plug-In . SVG Version: 6.00 Build 0)  -->
<svg version="1.1" id="Ebene_1" xmlns="http://www.w3.org/2000/svg" xmlns:xlink="http://www.w3.org/1999/xlink" x="0px" y="0px"
	 viewBox="0 0 500 432.48" style="enable-background:new 0 0 500 432.48;" xml:space="preserve">
<path d="M0.12,229.14c0-11.6,0-23.19,0.03-36.15c0.45-2.57,1.01-3.75,1.28-4.98c2.5-11.51,4.05-23.32,7.56-34.5
	c16.52-52.59,51.18-90.32,98.59-116.75C161.16,6.88,218.71-4.55,279.84,1.62c36.14,3.64,70.98,12.02,103.03,29.27
	C453.69,69,494.6,127.3,498.34,208.75c2.85,62.07-19.86,114.62-64.79,157.14c-40.21,38.05-89.54,56.48-143.67,63.54
	c-9.34,1.22-18.72,2.04-28.08,3.05c-10.55,0-21.09,0-32.93-0.27c-3.11-0.51-4.92-0.85-6.75-0.96c-24.26-1.46-47.94-6.12-70.65-14.64
	C78.78,389.33,29.17,339.85,7.26,264.47C3.92,252.97,2.45,240.93,0.12,229.14z M265.74,118.56c8.93,0,17.86-0.01,26.79,0
	c15.56,0.03,21.34,6.14,21.18,21.46c-0.23,21.53-0.15,43.07-0.08,64.6c0.02,7.12,0.25,7.26,7.76,7.37
	c7.35,0.11,14.72-0.22,22.06,0.15c9.97,0.51,16.24,6.88,16.28,16.59c0.12,31.25,0.13,62.5,0,93.75
	c-0.04,10.55-5.62,16.64-15.96,18.02c-2.59,0.35-5.24,0.3-7.86,0.28c-20.73-0.21-41.47-0.52-62.2-0.65
	c-7.07-0.05-7.31,0.22-7.36,6.89c-0.1,14.97,0.07,29.94-0.07,44.91c-0.04,4.44,1.62,6.27,6.06,5.68c8.32-1.1,16.7-1.82,24.97-3.2
	c35.72-5.94,68.81-18.36,98.09-40.13c56.23-41.8,82.01-112.17,64.86-179.35c-14.03-54.97-48.4-93.74-99.2-117.33
	C303.5,30.91,243.44,26.71,181.99,42.25c-8.4,2.12-8.38,2.26-8.39,11.12c-0.11,75.63-0.2,151.26-0.35,226.88
	c-0.01,7.08-0.42,14.15-0.65,21.23c-0.1,3.17,1.15,4.8,4.6,4.81c17.07,0.01,34.14,0.14,51.2,0.27c3.16,0.02,4.99-1.09,4.77-4.58
	c-0.12-1.83,0-3.68,0-5.51c0.05-51.73,0.1-103.47,0.16-155.2c0-2.36-0.13-4.74,0.09-7.09c0.88-9.38,7.17-15.32,16.56-15.59
	C254.71,118.46,259.44,118.57,265.74,118.56z M38.64,252.75c2.86,8.44,5.02,17.2,8.69,25.26c34.84,76.57,97.04,112.66,178.51,119.82
	c6.49,0.57,6.87-0.09,6.91-7.18c0.08-14.18,0.07-28.37,0.01-42.55c-0.03-7.84-0.14-7.93-7.91-7.99c-21.53-0.16-43.07-0.3-64.61-0.4
	c-15.13-0.07-21.14-5.79-21.13-20.81c0.01-12.33,0.6-24.67,0.63-37c0.19-70.92,0.29-141.84,0.42-212.76c0-1.58,0.02-3.15-0.01-4.73
	c-0.13-6.75-0.21-6.87-6.54-3.68c-4.92,2.48-9.77,5.12-14.49,7.96c-30.42,18.23-54.86,42.17-70.3,74.52
	C32.25,178.02,29.55,214.21,38.64,252.75z M266.6,295.98c0.01,1.84,0.13,3.68,0,5.51c-0.25,3.74,1.51,5.12,5.13,5.1
	c16.8-0.06,33.61-0.05,50.41,0.06c3.01,0.02,4.22-0.99,4.21-4.06c-0.08-17.33-0.1-34.65,0.02-51.98c0.03-3.81-1.6-5.09-5.17-5.09
	c-7.08-0.02-14.21-0.82-21.24-0.26c-12.22,0.97-20.42-6.55-20.04-20.15c0.61-22.04,0.2-44.1,0.13-66.15
	c-0.02-6.77-0.27-6.88-6.34-6.97c-6.77-0.09-6.91-0.05-6.93,6.99C266.7,204.14,266.66,249.29,266.6,295.98z"/>
</svg>
